Coordinates
version=1
nRows=17
nColumns=38
inDegrees=no

Units are S.I. units (second, meters, Newtons, ...)
If the header above contains a line with 'inDegrees', this indicates whether rotational values are in degrees (yes) or radians (no).

endheader
time	pelvis_tilt	pelvis_list	pelvis_rotation	pelvis_tx	pelvis_ty	pelvis_tz	hip_flexion_r	hip_adduction_r	hip_rotation_r	knee_angle_r	ankle_angle_r	subtalar_angle_r	mtp_angle_r	hip_flexion_l	hip_adduction_l	hip_rotation_l	knee_angle_l	ankle_angle_l	subtalar_angle_l	mtp_angle_l	lumbar_extension	lumbar_bending	lumbar_rotation	arm_flex_r	arm_add_r	arm_rot_r	elbow_flex_r	pro_sup_r	wrist_flex_r	wrist_dev_r	arm_flex_l	arm_add_l	arm_rot_l	elbow_flex_l	pro_sup_l	wrist_flex_l	wrist_dev_l
0.94	-0.72577	1.47611	2.24815	0.657447	1.26302	0.995426	0.239482	-0.0484072	0.184464	1.10729	-0.492835	0	0	0.46096	0.0363602	-0.303168	0.75361	-0.0963676	0	0	-0.0953778	-0.0604854	0.111475	-0.323046	-0.308897	0.183162	0.60621	1.11783	0	0	0.00050079	-0.393824	0.755773	0.344993	0.899661	0	0
0.95	-0.770583	1.47923	2.30218	0.655882	1.27293	0.996405	0.266507	-0.0482847	0.182871	1.14665	-0.502075	0	0	0.444316	0.0405028	-0.302836	0.754417	-0.0954641	0	0	-0.100216	-0.0612174	0.108334	-0.330812	-0.312105	0.177313	0.619365	1.11368	0	0	0.0241992	-0.407324	0.807469	0.358378	0.8581	0	0
0.96	-0.797264	1.48219	2.33853	0.654254	1.28274	0.997276	0.295118	-0.0470241	0.178144	1.186	-0.48759	0	0	0.429583	0.0435171	-0.29789	0.754314	-0.0927487	0	0	-0.108359	-0.0609018	0.0922427	-0.329159	-0.318672	0.181394	0.6317	1.11161	0	0	0.0272922	-0.416405	0.753679	0.380162	0.921853	0	0
0.97	-0.835102	1.48678	2.38605	0.652732	1.29233	0.998187	0.321804	-0.0451631	0.170835	1.22441	-0.45457	0	0	0.413282	0.0456081	-0.291964	0.75281	-0.0906893	0	0	-0.11516	-0.0595871	0.0930265	-0.341274	-0.313137	0.146053	0.644489	1.14081	0	0	0.0554147	-0.433061	0.810396	0.399647	0.89639	0	0
0.98	-0.85112	1.49192	2.41134	0.651203	1.30193	0.999259	0.347761	-0.0412122	0.163	1.25485	-0.443384	0	0	0.397962	0.0454824	-0.286994	0.750294	-0.0900882	0	0	-0.121114	-0.0565667	0.086802	-0.342922	-0.316757	0.145711	0.651038	1.13829	0	0	0.0735814	-0.443916	0.818015	0.415695	0.908768	0	0
0.99	-0.856152	1.49699	2.42495	0.649762	1.3115	1.00036	0.373616	-0.036482	0.155655	1.28065	-0.431508	0	0	0.382975	0.044685	-0.282774	0.747649	-0.088148	0	0	-0.125932	-0.0530156	0.0818568	-0.343857	-0.320255	0.146854	0.65551	1.13506	0	0	0.0925938	-0.453703	0.825446	0.430045	0.921378	0	0
1	-0.856721	1.50191	2.43335	0.648433	1.32108	1.00151	0.398797	-0.0316077	0.149074	1.30109	-0.420105	0	0	0.367412	0.0432986	-0.280709	0.745096	-0.0848649	0	0	-0.129875	-0.0494636	0.0777583	-0.344101	-0.323559	0.14949	0.658189	1.13153	0	0	0.111883	-0.462475	0.832275	0.442478	0.934352	0	0
1.01	-0.859429	1.50679	2.44328	0.647127	1.33059	1.00271	0.422763	-0.0273706	0.142921	1.31608	-0.410682	0	0	0.35085	0.041647	-0.281046	0.742407	-0.0809516	0	0	-0.133474	-0.046042	0.0740202	-0.343774	-0.326933	0.153647	0.659761	1.12766	0	0	0.130986	-0.470257	0.837455	0.453221	0.947311	0	0
1.02	-0.852356	1.51124	2.44315	0.645812	1.34001	1.00388	0.445718	-0.0235518	0.137171	1.32447	-0.404647	0	0	0.3344	0.0397664	-0.282415	0.739074	-0.0778937	0	0	-0.135815	-0.0422281	0.0694253	-0.34268	-0.330494	0.159165	0.660649	1.12296	0	0	0.149003	-0.476597	0.838681	0.461934	0.958127	0	0
1.03	-0.848862	1.51568	2.44608	0.644558	1.34932	1.00503	0.466785	-0.0204159	0.131702	1.32688	-0.395711	0	0	0.317096	0.0377278	-0.284269	0.734579	-0.0733078	0	0	-0.137568	-0.0384036	0.0705485	-0.34658	-0.328481	0.147086	0.661944	1.1344	0	0	0.176478	-0.482584	0.868857	0.466942	0.947148	0	0
1.04	-0.837111	1.5201	2.44095	0.643348	1.3587	1.00618	0.485924	-0.0179267	0.125266	1.32242	-0.386425	0	0	0.299612	0.0352479	-0.285336	0.728677	-0.0690775	0	0	-0.139047	-0.0342081	0.0706988	-0.349528	-0.327248	0.138908	0.662729	1.14129	0	0	0.202595	-0.487447	0.892875	0.471297	0.939911	0	0
1.05	-0.835637	1.52517	2.44648	0.642148	1.36813	1.0074	0.501661	-0.0165842	0.117121	1.31193	-0.374372	0	0	0.281065	0.0328044	-0.284395	0.721327	-0.0654414	0	0	-0.1415	-0.029764	0.0706614	-0.352527	-0.325948	0.131541	0.663587	1.14702	0	0	0.228847	-0.491959	0.916702	0.475368	0.934077	0	0
1.06	-0.824531	1.53034	2.44304	0.640917	1.37755	1.00858	0.515052	-0.0161858	0.107117	1.29569	-0.36041	0	0	0.263359	0.029915	-0.282049	0.713663	-0.0633657	0	0	-0.143613	-0.0248265	0.0693965	-0.355031	-0.324917	0.126034	0.66427	1.15108	0	0	0.253822	-0.496257	0.938081	0.479343	0.932593	0	0
1.07	-0.862395	1.53764	2.48964	0.639577	1.3869	1.00994	0.522471	-0.01661	0.0948318	1.27417	-0.314843	0	0	0.242674	0.0261569	-0.27973	0.705016	-0.0624176	0	0	-0.150374	-0.0189126	0.0682746	-0.357517	-0.326996	0.128138	0.667682	1.13777	0	0	0.27915	-0.499126	0.950678	0.483705	0.947932	0	0
1.08	-0.813844	1.54228	2.44976	0.638219	1.39635	1.01089	0.532741	-0.0176331	0.0824519	1.24803	-0.301139	0	0	0.226751	0.0222916	-0.277978	0.697816	-0.0625805	0	0	-0.151377	-0.0129912	0.0615313	-0.357064	-0.329646	0.134051	0.668936	1.13003	0	0	0.295815	-0.503366	0.948031	0.490449	0.959957	0	0
1.09	-0.798645	1.54804	2.4431	0.636996	1.40582	1.01192	0.540686	-0.0181655	0.0695788	1.21998	-0.284546	0	0	0.208245	0.0177978	-0.277172	0.689617	-0.0619056	0	0	-0.153434	-0.00707543	0.0595334	-0.360994	-0.326239	0.122595	0.670404	1.1404	0	0	0.321772	-0.50646	0.974414	0.493135	0.951033	0	0
1.1	-0.894709	1.55555	2.54695	0.635866	1.41517	1.01313	0.548022	-0.0176947	0.0564346	1.19541	-0.233233	0	0	0.186179	0.0127699	-0.277091	0.680205	-0.0588863	0	0	-0.160665	-0.000928632	0.0595228	-0.365238	-0.32343	0.111039	0.67458	1.14464	0	0	0.347539	-0.50877	0.990499	0.49742	0.962783	0	0
